<svg id="Capa_1" enable-background="new 0 0 512 512" height="512" viewBox="0 0 512 512" width="512" xmlns="http://www.w3.org/2000/svg"><g><path d="m303.876 408.302h-270.59v-29.714h224.98z"/><path d="m0 306.195h91.197v30h-91.197z"/><path d="m101.81 230.158 37.15-52.02c17.968 27.958 43.702 50.45 80.42 72.37 57.17 33.71 61.82 74.32 59.32 95.99z"/><path d="m512 394.057v14.245h-139.77l-66.48-44.005c16.367-62.02-25.924-114.488-71.131-139.629-52.039-30.691-70.289-60.421-76.249-73.701l33.75-47.27 31.32 20.48c18.92 53.323 71.369 97.339 144.24 65.43l10.63 33.25-38.35 12.34 9.19 28.56 38.3-12.33 10.3 32.24-35.07 11.29 9.19 28.55 35.02-11.27 7.81 24.43h39.91c31.64 0 57.39 25.75 57.39 57.39z"/></g></svg>